{"title":"The Bling Ring 2013 BRRip 480p x264 AAC - VYTO [P2PDL]","uid":8891062,"size":320832528,"categoryP":"video","categoryS":"movies","magnet":"?xt=urn:btih:eb157a3f5022dac3a6fe4611c9ef63c506ebf601&amp;dn=The+Bling+Ring+2013+BRRip+480p+x264+AAC+-+VYTO+%5BP2PDL%5D&amp;tr=udp%3A%2F%2Ftracker.openbittorrent.com%3A80&amp;tr=udp%3A%2F%2Fopen.demonii.com%3A1337&amp;tr=udp%3A%2F%2Ftracker.coppersurfer.tk%3A6969&amp;tr=udp%3A%2F%2Fexodus.desync.com%3A6969","seeders":1,"leechers":1,"uploader":"ValidusVyto","files":-1,"time":1378584156,"description":"_______ Visit us at our Semi Public Bittorrent Community ________\n  &lt;a href=&quot;\nhttp://p2pdl.com&quot; rel=&quot;nofollow&quot; target=&quot;_NEW&quot;&gt;\nhttp://p2pdl.com&lt;/a&gt;  _____________________________ &lt;a href=&quot; http://p2pdl.com&quot; rel=&quot;nofollow&quot; target=&quot;_NEW&quot;&gt; http://p2pdl.com&lt;/a&gt;\n\n\n\nThe Bling Ring 2013 BRRip 480p x264 AAC - VYTO\n\n\nGenre: Crime | Drama\nPlot: Inspired by actual events, a group of fame-obsessed teenagers use the internet\nto track celebrities' whereabouts in order to rob their homes.\nDirector: Sofia Coppola\nStars: Katie Chang, Israel Broussard, Emma Watson.\nRated: R for teen drug and alcohol use, and for language including some brief sexual\nreferences.\n\n\nInfo: &lt;a href=&quot;\nhttp://www.imdb.com/title/tt2132285/&quot; rel=&quot;nofollow&quot; target=&quot;_NEW&quot;&gt;\nhttp://www.imdb.com/title/tt2132285/&lt;/a&gt;\n\n\nFormat                         : MPEG-4\nFile size                      : 300 MiB\nDuration                       : 1h 30mn\nOverall bit rate               : 463 Kbps\n\nVideo\nFormat                         : AVC\nBit rate                       : 421 Kbps\nWidth                          : 720 pixels\nHeight                         : 384 pixels\nDisplay aspect ratio           : 1.85:1\nFrame rate mode                : Constant\nFrame rate                     : 23.976 fps\nBit depth                      : 10 bits\nStream size                    : 272 MiB (91%)\nWriting library                : x264 core 138 r2358 \n\nAudio\nFormat                         : AAC\nBit rate mode                  : Variable\nBit rate                       : 39.9 Kbps\nChannel(s)                     : 2 channels\nChannel positions              : Front: L R\nSampling rate                  : 48.0 KHz\nStream size                    : 25.9 MiB (9%)\nLanguage                       : English\n\nSource                         : 720p.BluRay.x264-ALLiANCE\n &lt;a href=&quot;\nhttp://ultraimg.com/images/Wm2dT.png&quot; rel=&quot;nofollow&quot; target=&quot;_NEW&quot;&gt;\nhttp://ultraimg.com/images/Wm2dT.png&lt;/a&gt; &lt;a href=&quot;\nhttp://ultraimg.com/images/qNazi.png&quot; rel=&quot;nofollow&quot; target=&quot;_NEW&quot;&gt;\nhttp://ultraimg.com/images/qNazi.png&lt;/a&gt; &lt;a href=&quot;\nhttp://ultraimg.com/images/JLlb8.png&quot; rel=&quot;nofollow&quot; target=&quot;_NEW&quot;&gt;\nhttp://ultraimg.com/images/JLlb8.png&lt;/a&gt; &lt;a href=&quot;\nhttp://ultraimg.com/images/m46ZS.png&quot; rel=&quot;nofollow&quot; target=&quot;_NEW&quot;&gt;\nhttp://ultraimg.com/images/m46ZS.png&lt;/a&gt; &lt;a href=&quot;\nhttp://ultraimg.com/images/LnMfs.png&quot; rel=&quot;nofollow&quot; target=&quot;_NEW&quot;&gt;\nhttp://ultraimg.com/images/LnMfs.png&lt;/a&gt; &lt;a href=&quot;\nhttp://ultraimg.com/images/9XH6j.png&quot; rel=&quot;nofollow&quot; target=&quot;_NEW&quot;&gt;\nhttp://ultraimg.com/images/9XH6j.png&lt;/a&gt;\n\n----------------------------------------------------------------------------------------------------\n\n\nRecommend to you to use latest version of VLC player. Install K-Lite Codec Pack or shark007 codecs\nin case of any kind of problem in playback (For non-VLC Media Player users). Alternatively, install\nCore AVC codecs, the fastest decoder that there is coupled with Community Center Codec Pack and play\non Windows Media Player Classic. Check sample to be sure.\nEnjoy!\n\nEncoder Notes:Looking For Early Access To Anything You Can Provide DVDScr, R5, DVDR, BluRay, Direct\nAudio, Music Releases and Seedboxes. We require dedicated servers, so as to do more \nand fast releases of movies.\nIf You Got anything to offer please contact us at &quot;&lt;a class=&quot;__cf_email__&quot; href=&quot;/cdn-cgi/l/email-protection&quot; data-cfemail=&quot;5121233611392422397f323e3c&quot;&gt;[email&amp;#160;protected]&lt;/a&gt;&lt;script cf-hash='f9e31' type=&quot;text/javascript&quot;&gt;\n/* &lt;![CDATA[ */!function(){try{var t=&quot;currentScript&quot;in document?document.currentScript:function(){for(var t=document.getElementsByTagName(&quot;script&quot;),e=t.length;e--;)if(t[e].getAttribute(&quot;cf-hash&quot;))return t[e]}();if(t&amp;&amp;t.previousSibling){var e,r,n,i,c=t.previousSibling,a=c.getAttribute(&quot;data-cfemail&quot;);if(a){for(e=&quot;&quot;,r=parseInt(a.substr(0,2),16),n=2;a.length-n;n+=2)i=parseInt(a.substr(n,2),16)^r,e+=String.fromCharCode(i);e=document.createTextNode(e),c.parentNode.replaceChild(e,c)}}}catch(u){}}();/* ]]&gt; */&lt;/script&gt;&quot;.\n\nFace book Fan Page:  \nSearch P2PDL on FB and hit like!!!\n\nFor more of our team uploads visit @                                           &lt;a href=&quot;\nhttp://thepiratebay.se/user/vitamin_x&quot; rel=&quot;nofollow&quot; target=&quot;_NEW&quot;&gt;\nhttp://thepiratebay.se/user/vitamin_x&lt;/a&gt;\t","torrent":{"xt":"urn:btih:eb157a3f5022dac3a6fe4611c9ef63c506ebf601","amp;dn":"The+Bling+Ring+2013+BRRip+480p+x264+AAC+-+VYTO+%5BP2PDL%5D","amp;tr":["udp%3A%2F%2Ftracker.openbittorrent.com%3A80","udp%3A%2F%2Fopen.demonii.com%3A1337","udp%3A%2F%2Ftracker.coppersurfer.tk%3A6969","udp%3A%2F%2Fexodus.desync.com%3A6969"],"infoHash":"eb157a3f5022dac3a6fe4611c9ef63c506ebf601","infoHashBuffer":{"type":"Buffer","data":[235,21,122,63,80,34,218,195,166,254,70,17,201,239,99,197,6,235,246,1]},"announce":[],"urlList":[]}}